<svg width="141" height="141" viewBox="0 0 141 141" fill="none" xmlns="http://www.w3.org/2000/svg">
<circle cx="70.5" cy="70.5" r="70.5" fill="#989898"/>
<path fill-rule="evenodd" clip-rule="evenodd" d="M88.1388 2.22463C82.5014 0.772413 76.5909 0 70.5 0C63.9897 0 57.6855 0.882442 51.7005 2.53424C50.8178 10.6446 48.0168 18.1986 43.7468 24.7598C49.5864 33.0916 53 43.1583 53 54C53 79.5344 34.0645 100.77 9.09729 105.166C15.4612 116.414 24.8264 125.739 36.1051 132.055C45.9166 120.422 60.8165 113 77.5 113C91.3165 113 103.91 118.091 113.403 126.447C120.396 121.076 126.354 114.424 130.924 106.84C126.824 101.4 124.094 94.8159 123.265 87.634C99.6141 82.2562 82 61.6274 82 37C82 28.0725 84.3146 19.6705 88.3924 12.33C88.1333 10.2552 88 8.14272 88 6C88 4.7304 88.0468 3.47143 88.1388 2.22463Z" fill="#ABABAB"/>
</svg>
